<?xml version="1.0" standalone="no"?>
<!DOCTYPE svg PUBLIC "-//W3C//DTD SVG 20010904//EN"
 "http://www.w3.org/TR/2001/REC-SVG-20010904/DTD/svg10.dtd">
<svg version="1.0" xmlns="http://www.w3.org/2000/svg"
 width="860.000000pt" height="627.000000pt" viewBox="0 0 860.000000 627.000000"
 preserveAspectRatio="xMidYMid meet">

<g transform="translate(0.000000,627.000000) scale(0.100000,-0.100000)"
fill="#000000" stroke="none">
<path d="M2925 4410 c-757 -756 -1381 -1383 -1386 -1394 -10 -16 21 -51 247
-277 l259 -259 1130 1130 1130 1130 1125 -1125 c619 -619 1130 -1125 1135
-1125 6 0 125 115 265 255 l255 255 -1392 1392 -1393 1393 -1375 -1375z"/>
<path d="M3313 3318 l-993 -993 0 -913 0 -912 710 0 710 0 0 830 0 830 565 0
565 0 0 -830 0 -830 710 0 710 0 0 912 0 913 -992 992 -993 993 -992 -992z"/>
</g>
</svg>
